<?xml version="1.0" standalone="no"?><!DOCTYPE svg PUBLIC "-//W3C//DTD SVG 1.1//EN" "http://www.w3.org/Graphics/SVG/1.1/DTD/svg11.dtd"><svg t="1662401754762" class="icon" viewBox="0 0 1024 1024" version="1.1" xmlns="http://www.w3.org/2000/svg" p-id="2389" xmlns:xlink="http://www.w3.org/1999/xlink" width="200" height="200"><path d="M834.670833 1016.025H251.570833c-31.4875 0-57.104167-25.6125-57.104166-57.1V212.95c0-31.4875 25.616667-57.104167 57.104166-57.104167h117.1v42.283334h348.779167V155.845833h117.220833c31.4875 0 57.104167 25.616667 57.104167 57.104167v745.975c0 31.483333-25.616667 57.1-57.104167 57.1zM251.570833 185.0125a27.970833 27.970833 0 0 0-27.9375 27.9375v745.975a27.970833 27.970833 0 0 0 27.9375 27.933333h583.1a27.970833 27.970833 0 0 0 27.9375-27.933333V212.95a27.970833 27.970833 0 0 0-27.9375-27.9375h-88.054166v20.1375a22.166667 22.166667 0 0 1-22.141667 22.141667h-362.708333c-12.275 0-22.258333-9.933333-22.258334-22.141667v-20.1375H251.570833z" p-id="2390" fill="#000000"></path><path d="M724.475 227.295833h-362.708333c-12.275 0-22.258333-9.933333-22.258334-22.141666V121.295833a22.283333 22.283333 0 0 1 22.258334-22.258333h58.408333V36.375c0-13.9 11.258333-25.2125 25.091667-25.2125h195.5875a25.241667 25.241667 0 0 1 25.2125 25.2125v62.6625h58.408333c12.2125 0 22.141667 9.983333 22.141667 22.258333v83.854167a22.166667 22.166667 0 0 1-22.141667 22.145833z m-355.804167-29.166666h348.779167V128.204167h-80.55V40.333333h-187.5625v87.870834h-80.666667v69.925zM384.441667 406.766667c0-18.1875-0.708333-35.075-2.008334-50.666667h40.866667c-1.183333 14.291667-1.891667 31.179167-1.891667 50.666667v40.866666c15.591667 0 33.070833-0.591667 52.558334-1.891666v36.970833c-19.4875-1.3-36.966667-1.891667-52.558334-1.891667v89.525c11.691667-2.6 27.870833-9.095833 48.658334-19.4875 0 10.391667 0.708333 22.0875 1.891666 35.075-14.291667 5.2-31.0625 12.283333-50.55 21.495834v144.095833c0 20.783333-5.7875 33.775-17.6 38.975-11.691667 5.195833-32.479167 9.683333-62.241666 13.583333-1.416667-12.991667-5.904167-27.166667-13.7-42.870833 18.1875 1.416667 32.241667 1.65 41.929166 1.0625 9.683333-0.7125 14.645833-8.858333 14.645834-24.329167v-116.929166c-25.983333 9.091667-46.179167 18.1875-60.470834 27.279166-1.3-15.5875-5.079167-31.175-11.691666-46.770833 18.1875-2.595833 42.283333-9.095833 72.1625-19.491667v-101.216666c-27.4 0-49.370833 0.591667-66.258334 1.891666v-36.970833c15.591667 1.3 37.675 1.891667 66.258334 1.891667v-40.8625z m340.741666-33.070834c-1.179167 19.370833-1.8875 38.975-1.8875 58.345834 0 18.1875 0.708333 37.675 1.8875 58.4625h-206.333333c1.179167-20.7875 1.8875-40.275 1.8875-58.4625 0-19.366667-0.708333-38.975-1.8875-58.345834h206.333333z m17.604167 151.8875c-1.304167 18.1875-1.891667 36.966667-1.891667 56.454167v48.779167c0 19.370833 0.591667 41.454167 1.891667 66.141666h-38.979167v-138.1875h-165.583333v140.191667h-38.975c1.3-22.2 2.008333-44.170833 2.008333-66.254167v-48.779166c0-14.291667-0.708333-33.6625-2.008333-58.345834h243.5375z m-97.445833 68.145834c-5.079167 19.491667-9.325 41.8125-12.633334 67.204166-3.191667 25.395833-9.329167 46.183333-18.541666 62.3625-8.975 16.179167-22.679167 31.770833-40.870834 46.770834-18.1875 14.883333-48.658333 30.120833-91.529166 45.7125-5.2-10.391667-14.883333-22.679167-29.170834-36.970834 36.258333-6.495833 64.604167-16.179167 84.683334-29.2875 20.195833-12.991667 34.725-27.6375 43.816666-43.820833 9.1-16.183333 14.291667-34.370833 15.591667-54.445833 1.3-20.2 2.008333-41.220833 2.008333-63.425 15.466667 2.595833 31.175 4.604167 46.645834 5.9z m44.766666-134.404167v-56.458333h-134.2875v56.458333h134.2875z m-33.075 247.433333c15.591667 8.975 34.841667 19.725 57.520834 32.129167 22.675 12.279167 42.520833 24.329167 59.408333 36.020833-10.391667 10.395833-18.779167 21.379167-25.391667 33.075a876.266667 876.266667 0 0 0-50.554166-36.025c-16.8875-11.104167-38.383333-22.441667-64.25-34.0125 8.979167-10.4 16.891667-20.795833 23.266666-31.1875z" p-id="2391" fill="#000000"></path></svg>